<svg width="210" height="188" viewBox="0 0 210 188" fill="none" xmlns="http://www.w3.org/2000/svg">
<g id="OBJECTS" clip-path="url(#clip0_675_1654)">
<path id="Vector" d="M61.5262 49.8553L91.8096 121.701C92.0921 122.349 92.5274 122.918 93.0779 123.36C93.6285 123.802 94.2779 124.104 94.9704 124.239C95.663 124.374 96.378 124.339 97.054 124.137C97.73 123.934 98.3469 123.571 98.8517 123.077L132.515 89.3595C132.96 88.9255 133.492 88.5917 134.077 88.3807C134.661 88.1696 135.284 88.0861 135.904 88.1357C136.523 88.1853 137.124 88.367 137.668 88.6684C138.212 88.9699 138.685 89.3842 139.055 89.8836L210 188H0L53.5029 49.9645C53.8272 49.1719 54.3769 48.4923 55.0838 48.0103C55.7907 47.5283 56.6234 47.2651 57.4785 47.2534C58.3336 47.2418 59.1732 47.4822 59.8928 47.9449C60.6125 48.4075 61.1805 49.0718 61.5262 49.8553Z" fill="#8689A2" fill-opacity="0.2"/>
<path id="Vector_2" d="M169.142 38.4779C165.995 41.628 161.986 43.7728 157.622 44.641C153.258 45.5093 148.735 45.062 144.624 43.3558C140.514 41.6496 137.001 38.761 134.529 35.0553C132.057 31.3495 130.738 26.993 130.738 22.5364C130.738 18.0798 132.057 13.7233 134.529 10.0176C137.001 6.31183 140.514 3.42327 144.624 1.71706C148.735 0.0108536 153.258 -0.436401 157.622 0.431841C161.986 1.30008 165.995 3.44484 169.142 6.59497C171.236 8.68642 172.897 11.1711 174.031 13.9066C175.164 16.6421 175.747 19.5747 175.747 22.5364C175.747 25.4981 175.164 28.4308 174.031 31.1663C172.897 33.9018 171.236 36.3864 169.142 38.4779Z" fill="#8689A2" fill-opacity="0.2"/>
</g>
<defs>
<clipPath id="clip0_675_1654">
<rect width="210" height="188" fill="white"/>
</clipPath>
</defs>
</svg>
